<?xml version="1.0" standalone="no"?>
<!DOCTYPE svg PUBLIC "-//W3C//DTD SVG 20010904//EN"
 "http://www.w3.org/TR/2001/REC-SVG-20010904/DTD/svg10.dtd">
<svg version="1.0" xmlns="http://www.w3.org/2000/svg"
 width="1920.000000pt" height="1920.000000pt" viewBox="0 0 1920.000000 1920.000000"
 preserveAspectRatio="xMidYMid meet">

<g transform="translate(0.000000,1920.000000) scale(0.100000,-0.100000)"
fill="#000000" stroke="none">
<path d="M0 9600 l0 -9600 9600 0 9600 0 0 9600 0 9600 -9600 0 -9600 0 0
-9600z m19190 0 l0 -9590 -9590 0 -9590 0 0 9590 0 9590 9590 0 9590 0 0
-9590z"/>
<path d="M11840 16875 c0 -14 47 -97 95 -170 138 -208 360 -356 710 -473 373
-124 544 -216 721 -384 146 -140 238 -291 300 -493 26 -83 28 -103 28 -255 0
-154 -2 -170 -28 -250 -106 -319 -314 -509 -673 -616 l-93 -28 0 -111 c0 -119
19 -293 45 -415 34 -159 149 -457 242 -626 19 -36 33 -67 30 -70 -12 -13 -144
89 -250 194 -209 205 -318 462 -334 789 l-6 131 -66 4 c-36 2 -70 1 -74 -3
-31 -25 -32 -357 -2 -504 38 -187 126 -393 243 -569 26 -39 49 -75 51 -80 10
-25 -157 105 -230 178 -134 134 -227 301 -281 507 -32 121 -32 367 0 486 22
80 84 236 103 259 12 15 15 14 -106 62 -210 85 -445 142 -710 174 -151 18
-698 18 -825 -1 -748 -106 -1400 -412 -1767 -831 -153 -173 -232 -316 -324
-586 -103 -301 -166 -414 -319 -564 -205 -202 -444 -345 -1010 -601 -102 -46
-225 -104 -275 -129 -162 -83 -380 -228 -365 -243 11 -11 176 -27 275 -27 56
0 187 11 291 24 338 44 426 43 555 -5 119 -43 228 -164 269 -296 81 -263 -96
-546 -370 -595 -122 -21 -279 28 -352 111 -108 123 -106 307 4 419 39 40 72
58 131 72 44 9 107 4 107 -9 0 -4 -21 -12 -47 -19 -60 -16 -136 -90 -152 -147
-15 -56 -14 -84 8 -131 44 -96 152 -130 256 -80 129 63 187 204 144 346 -17
58 -89 131 -145 148 -95 28 -178 9 -366 -82 -148 -73 -228 -96 -334 -96 -144
0 -272 68 -325 173 -13 24 -24 36 -30 30 -21 -21 -41 -217 -36 -353 13 -318
80 -515 232 -677 l63 -68 39 37 c84 81 240 120 398 99 165 -22 303 -77 544
-215 80 -46 164 -93 186 -104 74 -38 3 -25 -234 44 -124 36 -266 75 -316 86
-107 24 -284 28 -365 9 -67 -16 -150 -50 -150 -62 0 -12 125 -84 207 -119 257
-109 869 -193 1167 -161 159 18 303 58 577 161 295 111 422 145 624 167 137
15 178 15 383 3 488 -28 870 25 1242 172 332 131 679 382 877 636 36 45 67 82
70 82 3 0 -16 -39 -42 -87 -303 -564 -809 -916 -1452 -1009 -162 -24 -526 -24
-773 -1 -143 13 -208 15 -284 8 -54 -5 -100 -12 -103 -15 -9 -9 138 -155 203
-202 225 -161 532 -269 859 -303 138 -14 531 -6 655 14 250 39 451 94 665 180
398 159 711 367 987 654 103 107 237 272 267 329 7 13 15 22 17 19 9 -8 -55
-127 -131 -242 -341 -523 -872 -898 -1495 -1055 -204 -52 -348 -71 -570 -77
-546 -15 -953 101 -1324 376 -83 62 -97 68 -105 53 -34 -66 -111 -267 -111
-291 0 -71 213 -323 352 -417 220 -148 483 -242 813 -290 166 -25 569 -25 745
0 626 86 1225 321 1610 631 288 232 538 569 634 857 29 84 31 132 15 240 -23
148 -14 135 -107 173 -201 82 -376 198 -532 355 -128 127 -205 234 -274 381
-66 139 -122 324 -159 522 -15 82 -8 104 12 37 39 -131 238 -456 373 -610 372
-425 882 -591 1544 -505 325 43 614 140 886 298 62 36 121 72 131 79 17 13 5
21 -125 86 -202 101 -309 174 -758 518 -189 145 -350 248 -505 324 -154 76
-247 110 -405 147 -159 37 -435 43 -663 13 -146 -18 -257 -40 -332 -65 -30
-10 69 78 170 150 122 88 310 179 555 269 483 177 576 216 725 306 390 236
688 602 829 1020 19 58 47 164 62 235 24 114 27 154 27 320 1 216 -13 317 -70
504 -234 777 -958 1326 -1878 1426 -71 8 -188 17 -260 20 -421 21 -679 91
-871 236 -49 37 -64 45 -64 34z m1898 -897 c-2 -13 -10 -23 -18 -23 -8 0 -16
10 -18 23 -3 17 2 22 18 22 16 0 21 -5 18 -22z m407 -340 c45 -54 25 -131 -41
-163 -30 -14 -53 -16 -113 -12 -42 3 -89 10 -106 17 l-30 12 36 12 c52 18 75
37 120 97 22 30 46 59 55 65 21 17 50 6 79 -28z m185 -523 c60 -31 78 -100 41
-161 -20 -34 -75 -64 -115 -64 -89 0 -253 70 -316 135 l-34 35 95 -6 c88 -6
98 -5 159 21 57 25 130 53 138 55 2 0 16 -7 32 -15z m-448 -459 c82 -79 170
-118 284 -126 104 -7 138 -23 160 -75 28 -68 7 -130 -59 -179 -40 -29 -126
-28 -187 3 -60 32 -138 114 -177 187 -42 79 -96 244 -80 244 2 0 28 -24 59
-54z m-350 -263 c49 -195 134 -305 323 -418 119 -71 146 -99 160 -162 4 -22 0
-43 -15 -73 -39 -77 -121 -101 -205 -60 -65 32 -198 162 -249 243 -78 126
-116 279 -96 389 12 66 49 172 57 165 2 -3 14 -41 25 -84z m-298 -238 c21
-192 124 -418 304 -663 45 -63 81 -117 78 -120 -8 -8 -112 67 -183 132 -186
171 -263 378 -233 631 14 113 23 118 34 20z m-3388 -154 c-25 -216 -143 -424
-284 -499 -79 -42 -123 -42 -164 -1 -29 28 -30 33 -25 89 13 146 167 317 382
425 49 25 91 45 94 45 2 0 1 -27 -3 -59z m849 -31 c-3 -5 -11 -10 -17 -10 -19
0 -207 -79 -307 -130 -110 -55 -337 -204 -419 -274 -30 -25 -56 -46 -59 -46
-10 0 98 119 160 176 141 130 338 228 557 274 47 10 86 19 88 19 2 1 0 -3 -3
-9z m-1591 -291 c-77 -166 -96 -195 -58 -89 27 76 113 245 121 237 2 -3 -26
-69 -63 -148z m2114 -54 c50 -8 136 -29 190 -46 320 -103 580 -291 806 -583
79 -102 87 -116 54 -91 -14 11 -59 45 -99 76 -140 107 -360 221 -544 283 -453
153 -940 81 -1295 -190 -97 -74 -326 -292 -628 -599 -161 -163 -295 -295 -298
-292 -3 3 11 29 30 59 19 30 95 176 168 324 151 304 217 415 330 555 222 276
518 454 838 504 117 18 335 18 448 0z m-1837 -281 c43 -41 53 -87 30 -140 -46
-102 -190 -95 -230 11 -13 32 -13 43 0 78 30 87 135 114 200 51z m1522 -391
c71 -21 152 -63 277 -143 58 -37 134 -82 169 -99 34 -18 61 -34 59 -36 -7 -7
-132 23 -208 50 -275 99 -396 128 -500 120 -142 -12 -208 -35 -309 -106 -39
-27 -71 -46 -71 -41 0 20 66 106 116 151 133 118 297 155 467 104z m-218 -257
c71 -30 93 -121 41 -175 -71 -74 -189 -34 -203 68 -7 49 14 86 60 106 41 18
60 18 102 1z m545 -91 c0 -12 -16 -55 -37 -95 -70 -142 -203 -243 -353 -270
-78 -14 -156 -8 -310 27 -86 19 -146 26 -238 27 -139 1 -142 10 -17 48 58 18
106 23 275 28 193 6 210 8 290 36 108 38 183 88 262 173 61 66 63 68 95 58 24
-8 33 -16 33 -32z m2307 -416 c323 -62 633 -242 884 -514 35 -38 71 -79 79
-89 18 -24 10 -20 -60 30 -68 49 -141 90 -300 169 -308 155 -575 245 -945 320
-143 28 -261 58 -270 67 -8 7 112 28 220 39 110 10 270 1 392 -22z m-440 -164
c113 -8 279 -39 403 -75 96 -28 438 -185 427 -196 -2 -2 -105 30 -228 71 -209
71 -453 139 -646 180 -46 10 -83 22 -83 27 0 4 10 6 23 4 12 -3 59 -7 104 -11z
m-5336 -121 c109 -18 271 -70 358 -114 34 -16 61 -32 61 -33 0 -2 -32 5 -70
14 -147 38 -273 51 -532 56 -229 5 -423 -3 -558 -23 -108 -16 159 77 288 100
107 20 337 20 453 0z"/>
<path d="M9880 16667 c0 -27 -69 -155 -113 -208 -58 -72 -152 -143 -242 -184
-38 -18 -153 -58 -254 -90 -219 -67 -298 -98 -453 -175 -297 -148 -529 -342
-733 -615 -226 -304 -346 -608 -386 -980 -54 -507 175 -1071 560 -1377 41 -33
77 -56 81 -51 4 4 24 78 44 163 81 340 212 587 415 783 77 74 212 179 244 190
8 2 3 15 -13 34 -14 17 -50 62 -81 100 -208 255 -259 556 -149 883 93 279 262
482 575 688 271 179 312 213 382 310 84 117 127 253 139 443 5 72 4 99 -4 99
-7 0 -12 -6 -12 -13z m-1300 -1132 c0 -8 -7 -15 -15 -15 -9 0 -12 6 -9 15 4 8
10 15 15 15 5 0 9 -7 9 -15z m-246 -298 c38 -27 -2 -95 -41 -71 -19 12 -28 46
-19 70 7 18 36 18 60 1z m-170 -467 c64 -36 122 -46 171 -30 20 7 39 10 41 7
11 -10 -66 -84 -114 -110 -65 -35 -129 -44 -169 -24 -58 31 -78 89 -48 147 25
48 49 51 119 10z m287 -449 c-73 -172 -203 -291 -319 -291 -106 0 -174 98
-125 180 23 39 52 50 165 60 82 7 111 14 171 43 40 19 86 46 102 60 17 14 31
24 33 22 2 -2 -10 -35 -27 -74z m398 -185 c-2 -3 -38 -27 -79 -54 -115 -75
-256 -229 -384 -419 -119 -177 -118 -176 -155 -98 -28 60 -28 142 0 197 64
125 274 275 489 348 74 25 142 39 129 26z"/>
<path d="M13616 10233 c-24 -171 -130 -420 -253 -593 -84 -118 -325 -362 -453
-457 -393 -296 -944 -518 -1465 -592 -592 -84 -1138 -26 -1530 163 -298 143
-456 280 -555 481 -27 55 -57 130 -67 168 -9 37 -20 67 -23 67 -4 0 -36 -37
-73 -82 -69 -87 -146 -174 -337 -380 -219 -235 -318 -371 -410 -562 -105 -220
-148 -387 -157 -621 -17 -435 124 -820 446 -1224 182 -227 404 -421 667 -581
54 -33 95 -60 91 -60 -16 0 -361 137 -452 180 -418 195 -737 500 -923 882
-105 215 -153 423 -154 663 0 77 3 160 7 185 42 288 153 557 329 795 41 55 72
102 70 104 -2 3 -37 -19 -77 -47 -340 -243 -519 -339 -782 -421 -138 -43 -260
-66 -470 -91 -293 -34 -653 -80 -755 -96 -525 -83 -1105 -301 -1515 -569 -129
-84 -151 -109 -53 -59 79 40 310 122 422 150 255 63 508 35 673 -76 165 -110
261 -266 303 -490 16 -86 17 -336 1 -430 -100 -595 -469 -1225 -981 -1673
-122 -107 -333 -267 -352 -267 -5 0 44 51 108 113 372 357 676 833 834 1307
77 231 95 332 95 545 0 203 -10 256 -72 384 -72 145 -213 251 -398 296 -250
62 -601 -31 -912 -241 -364 -246 -630 -568 -801 -971 -137 -321 -180 -582
-169 -1033 5 -186 12 -278 36 -440 16 -113 43 -326 61 -473 31 -270 57 -392
101 -480 60 -118 150 -200 258 -237 72 -24 232 -29 326 -11 99 19 244 53 475
110 517 129 850 184 1215 198 348 13 681 -65 906 -213 177 -117 305 -275 394
-488 18 -42 37 -71 49 -76 12 -5 86 -18 166 -30 350 -52 732 -143 1430 -340
764 -216 805 -224 1105 -225 177 0 237 4 305 19 251 55 422 146 576 308 311
327 395 785 225 1220 -138 352 -451 699 -886 980 -597 387 -1364 608 -2105
608 -383 0 -860 -68 -1122 -159 -32 -11 -58 -17 -58 -12 0 12 197 127 321 186
221 105 513 186 797 220 59 6 202 13 317 14 350 2 626 -43 1003 -164 223 -72
341 -120 557 -229 603 -304 1102 -766 1320 -1220 164 -344 210 -694 134 -1042
-11 -52 -17 -99 -14 -104 4 -6 106 -10 271 -10 268 0 459 -9 794 -36 400 -32
653 -66 1185 -161 897 -159 985 -171 1225 -180 479 -17 835 113 1083 394 119
135 220 346 247 516 17 102 8 252 -20 342 -48 156 -173 347 -285 438 -310 251
-682 285 -969 88 -128 -88 -244 -271 -271 -430 -16 -87 -9 -214 15 -275 6 -16
9 -31 6 -33 -2 -2 -40 14 -84 36 -243 122 -352 213 -419 348 -34 69 -38 85
-41 172 -11 260 136 489 393 617 141 70 229 88 420 89 182 0 246 -10 420 -67
150 -48 270 -107 405 -196 168 -111 299 -244 416 -421 26 -40 50 -68 52 -63 6
20 -60 199 -117 317 -173 353 -450 656 -858 941 -68 47 -123 90 -123 96 0 5
13 51 29 101 86 268 110 414 118 697 11 416 -38 757 -167 1155 -59 180 -174
473 -195 494 -12 12 -23 12 -77 -3 -703 -191 -1324 -551 -1839 -1065 -514
-514 -855 -1104 -1014 -1754 -38 -151 -80 -392 -94 -532 -12 -127 -10 -481 4
-600 6 -55 10 -102 9 -104 -4 -4 -79 157 -116 249 -76 189 -127 392 -154 610
-20 164 -14 545 10 705 77 496 311 1008 662 1450 119 150 430 458 594 589 244
194 496 354 795 504 303 151 658 282 880 324 61 11 116 22 123 24 24 7 -6 55
-370 594 -383 568 -502 787 -634 1169 -24 68 -45 125 -47 128 -3 2 -8 -18 -11
-44z m47 -677 c44 -18 95 -78 103 -121 25 -135 -97 -225 -223 -164 -125 60
-124 218 2 283 37 19 76 20 118 2z m-365 -403 c69 -51 92 -139 54 -213 -36
-71 -138 -103 -211 -65 -120 61 -118 237 4 291 40 19 119 12 153 -13z m-3917
-236 c71 -47 86 -134 33 -196 -96 -114 -283 2 -218 136 23 46 76 83 119 83 18
0 47 -10 66 -23z m4444 -119 c27 -32 33 -84 15 -119 -14 -25 -62 -49 -101 -49
-44 0 -99 56 -99 102 0 106 116 148 185 66z m-1088 21 c139 -67 116 -271 -34
-303 -104 -23 -209 83 -189 189 9 44 63 103 111 120 54 19 62 18 112 -6z
m-2897 -171 c92 -63 91 -208 -1 -262 -94 -55 -211 4 -226 112 -7 53 1 83 34
122 32 39 55 49 114 49 32 1 56 -6 79 -21z m3734 -22 c64 -27 95 -101 66 -157
-13 -24 -61 -49 -94 -49 -50 0 -124 88 -110 133 11 39 62 84 97 86 4 1 22 -5
41 -13z m-1427 -62 c79 -38 116 -146 76 -224 -21 -41 -90 -80 -142 -80 -115 0
-201 148 -138 241 50 74 129 98 204 63z m-3130 -71 c27 -18 53 -68 53 -104 0
-12 -17 -39 -39 -60 -49 -49 -95 -53 -141 -11 -40 36 -51 78 -34 123 26 63
105 89 161 52z m1373 -35 c64 -33 85 -67 85 -137 0 -47 -5 -64 -27 -93 -54
-71 -154 -85 -218 -31 -42 35 -60 74 -60 130 0 60 26 105 77 132 50 26 89 26
143 -1z m1186 -43 c135 -103 34 -328 -127 -285 -131 35 -172 188 -76 278 53
50 143 53 203 7z m1811 -9 c87 -95 -17 -227 -134 -170 -54 27 -78 78 -63 134
23 87 132 107 197 36z m-2430 -7 c64 -24 105 -87 105 -159 0 -94 -56 -150
-151 -150 -103 0 -167 72 -159 177 4 42 11 60 34 84 50 54 111 71 171 48z
m-1669 -137 c78 -50 65 -164 -23 -203 -40 -18 -48 -18 -78 -6 -99 42 -102 173
-6 220 36 17 68 14 107 -11z m3796 -9 c66 -49 73 -135 16 -185 -24 -22 -40
-28 -76 -28 -40 0 -51 5 -85 39 -32 32 -39 46 -39 78 0 96 108 153 184 96z
m-278 -187 c26 -26 34 -42 34 -71 0 -47 -53 -105 -96 -105 -66 0 -129 71 -117
133 8 41 56 77 105 77 32 0 47 -7 74 -34z m-3160 -24 c36 -19 83 -80 90 -117
32 -171 -148 -300 -274 -198 -56 45 -77 88 -76 154 2 139 141 225 260 161z
m2810 -71 c48 -22 78 -52 105 -103 47 -91 -4 -204 -108 -239 -113 -37 -233 51
-233 173 0 83 32 136 105 169 50 23 79 23 131 0z m-2451 -125 c69 -29 85 -130
31 -185 -21 -20 -36 -26 -72 -26 -40 0 -50 5 -80 37 -22 25 -34 48 -34 66 0
51 62 121 108 122 7 0 28 -6 47 -14z m2045 -41 c67 -35 82 -115 31 -166 -33
-33 -67 -37 -111 -14 -66 34 -81 111 -31 164 33 35 65 40 111 16z m-1618 -94
c122 -77 115 -254 -12 -322 -47 -26 -122 -25 -169 2 -54 30 -84 80 -89 148
-11 156 142 253 270 172z m1295 8 c64 -24 112 -100 113 -177 1 -179 -251 -217
-315 -47 -53 137 70 274 202 224z m-397 -40 c70 -39 81 -110 26 -165 -26 -26
-42 -34 -71 -34 -54 0 -105 53 -105 108 0 57 46 109 99 111 7 1 30 -9 51 -20z
m-310 -28 c44 -31 70 -80 70 -130 0 -122 -101 -191 -205 -141 -80 39 -112 150
-64 226 42 69 135 89 199 45z m-338 -394 c50 -67 98 -160 98 -192 1 -47 12
-63 58 -80 125 -46 251 -133 330 -228 58 -70 118 -193 143 -297 27 -108 23
-282 -10 -373 -86 -243 -275 -426 -501 -483 -81 -21 -255 -23 -330 -5 -126 31
-265 114 -355 212 -131 142 -195 304 -195 494 0 118 20 199 77 315 39 79 62
109 133 180 94 94 165 140 267 174 73 25 70 21 94 119 6 26 27 73 45 103 33
55 84 122 94 123 3 0 26 -28 52 -62z m4298 -81 c0 -3 -39 -17 -87 -31 -323
-99 -657 -257 -943 -448 -132 -88 -311 -237 -464 -387 -357 -348 -624 -732
-806 -1160 -121 -284 -210 -587 -239 -820 -6 -47 -14 -101 -17 -120 l-7 -35
-7 27 c-5 15 -14 85 -20 155 -26 273 18 606 121 916 268 806 901 1506 1593
1762 187 69 415 119 611 134 117 9 265 13 265 7z m-9424 -426 l27 -11 -45 -28
c-118 -75 -176 -181 -238 -436 -76 -316 -82 -340 -115 -436 -88 -260 -257
-496 -470 -657 -89 -67 -247 -145 -350 -172 -102 -27 -282 -37 -356 -20 -58
13 -205 77 -197 85 2 3 36 -2 74 -10 88 -19 152 -19 251 0 335 64 613 264 793
571 102 174 137 320 150 614 6 144 14 232 24 267 33 106 121 196 225 227 54
17 188 20 227 6z m-891 -479 c69 -30 148 -110 181 -185 36 -80 45 -219 20
-314 -45 -169 -159 -334 -320 -460 -89 -70 -97 -73 -42 -11 109 122 189 261
221 384 19 76 19 224 0 300 -31 120 -113 219 -224 271 -48 23 -53 28 -36 35
34 15 147 3 200 -20z m10105 -555 c0 -2 -44 -19 -97 -37 -393 -130 -713 -333
-1003 -636 -120 -124 -215 -244 -363 -453 -63 -91 -125 -176 -136 -190 l-21
-25 6 30 c35 164 159 444 275 619 111 169 322 373 489 474 121 72 283 137 430
172 126 30 420 62 420 46z m-4694 -1101 c295 -52 608 -236 774 -456 135 -180
201 -393 199 -643 -1 -154 -11 -183 -28 -86 -53 298 -188 517 -406 661 -225
148 -485 168 -713 53 -76 -39 -105 -60 -167 -126 -125 -133 -177 -268 -176
-459 l0 -108 -111 114 c-143 149 -204 225 -242 305 -29 60 -31 73 -31 170 1
90 5 114 27 166 132 314 481 477 874 409z m-3446 -35 c287 -26 500 -57 755
-111 594 -125 1198 -361 1570 -613 86 -58 305 -262 305 -284 0 -9 -168 61
-680 285 -160 69 -291 116 -301 106 -4 -4 -26 -37 -49 -73 -101 -157 -170
-350 -196 -545 -22 -160 -28 -175 -43 -105 -44 196 -14 465 75 678 20 48 36
93 37 101 1 10 -25 23 -82 39 l-83 26 -19 -25 c-35 -46 -117 -214 -148 -302
-50 -142 -78 -289 -83 -434 -1 -35 -5 -63 -9 -63 -22 0 -48 227 -44 375 4 161
36 282 131 501 8 19 -384 114 -631 153 -307 48 -434 56 -930 56 -509 0 -665
-11 -1009 -70 -228 -39 -596 -127 -798 -191 -44 -14 -82 -23 -84 -21 -7 6 276
145 406 200 392 165 885 278 1340 307 332 20 430 22 570 10z m6690 -470 c273
-21 473 -68 646 -150 57 -28 108 -64 178 -126 53 -47 95 -88 93 -90 -2 -3 -80
21 -172 51 -123 40 -171 52 -176 43 -15 -24 -21 -197 -10 -301 19 -173 59
-301 145 -463 25 -46 43 -84 41 -84 -9 0 -50 48 -107 125 -147 195 -228 442
-228 691 l0 82 -81 22 c-44 12 -83 19 -86 17 -2 -3 -11 -47 -20 -98 -21 -133
-13 -358 20 -497 26 -114 20 -116 -37 -11 -94 172 -144 431 -118 609 7 47 6
67 -2 72 -6 5 -69 31 -141 59 -137 53 -164 68 -118 63 15 -2 93 -8 173 -14z"/>
<path d="M10518 6804 c-176 -42 -319 -177 -375 -351 -56 -179 -12 -359 123
-503 159 -168 374 -206 584 -103 105 51 175 124 230 238 41 83 44 95 48 190 3
77 0 116 -13 160 -79 274 -336 433 -597 369z m191 -251 c151 -48 217 -209 145
-350 -84 -165 -293 -192 -418 -53 -63 70 -84 149 -60 232 12 41 29 66 74 110
80 78 153 96 259 61z"/>
<path d="M14605 8256 c-66 -24 -145 -53 -175 -65 -68 -28 -342 -162 -338 -166
2 -2 35 5 73 15 167 43 266 54 472 54 112 1 203 3 202 6 -2 24 -90 195 -100
197 -8 1 -68 -17 -134 -41z"/>
<path d="M3188 4571 c-98 -187 -127 -258 -166 -405 -24 -91 -26 -119 -27 -276
0 -152 3 -186 23 -259 96 -353 358 -601 712 -678 64 -14 126 -18 255 -17 195
0 261 10 556 84 286 71 356 83 504 84 145 1 231 -16 324 -62 68 -34 86 -59
111 -151 26 -92 46 -131 113 -220 148 -197 383 -319 655 -340 138 -11 243 -4
527 35 355 48 450 46 643 -18 51 -16 95 -28 97 -27 8 8 -58 128 -105 190 -69
93 -158 161 -355 274 -277 160 -335 209 -490 415 -44 58 -102 128 -131 155
-184 177 -453 221 -713 117 -71 -28 -169 -115 -204 -181 -10 -19 -22 -31 -30
-28 -158 70 -228 88 -372 94 -151 6 -248 -8 -550 -82 -331 -81 -385 -89 -570
-89 -137 0 -172 3 -240 22 -204 59 -345 172 -439 352 -98 190 -104 344 -25
663 46 185 53 296 24 408 -33 127 -29 128 -127 -60z"/>
</g>
</svg>
